<?xml version="1.0" encoding="UTF-8" standalone="no"?> <svg width="64" height="64" viewBox="0 0 64 64" fill="none" xmlns="http://www.w3.org/2000/svg">
<path d="M43.89 17.54H19.3L17.27 20.46V32.5L32.61 39.41L46.87 32.5V19.51L43.89 17.54Z" fill="#78B9EB"/>
<path d="M17.27 41.75V53.99L19.8 56.39H44.01L46.61 53.67V41.75L32.35 48.73L17.27 41.75Z" fill="#78B9EB"/>
<path d="M47.94 41.86V20.47C47.94 19.372 47.5038 18.319 46.7274 17.5426C45.951 16.7662 44.898 16.33 43.8 16.33H40.38V4C40.38 3.66848 40.2483 3.35054 40.0139 3.11612C39.7795 2.8817 39.4615 2.75 39.13 2.75H24.87C24.5385 2.75 24.2205 2.8817 23.9861 3.11612C23.7517 3.35054 23.62 3.66848 23.62 4V16.33H20.2C19.102 16.33 18.049 16.7662 17.2726 17.5426C16.4962 18.319 16.06 19.372 16.06 20.47V53.28C16.0626 54.3772 16.4997 55.4287 17.2755 56.2045C18.0513 56.9803 19.1028 57.4174 20.2 57.42H22V60C22 60.3315 22.1317 60.6495 22.3661 60.8839C22.6005 61.1183 22.9185 61.25 23.25 61.25C23.5815 61.25 23.8995 61.1183 24.1339 60.8839C24.3683 60.6495 24.5 60.3315 24.5 60V57.42H39.5V60C39.5 60.3315 39.6317 60.6495 39.8661 60.8839C40.1005 61.1183 40.4185 61.25 40.75 61.25C41.0815 61.25 41.3995 61.1183 41.6339 60.8839C41.8683 60.6495 42 60.3315 42 60V57.42H43.8C44.8972 57.4174 45.9487 56.9803 46.7245 56.2045C47.5003 55.4287 47.9374 54.3772 47.94 53.28V41.86ZM18.56 34.32L31.46 40.51C31.6291 40.5887 31.8134 40.6295 32 40.6295C32.1866 40.6295 32.3709 40.5887 32.54 40.51L45.44 34.32V41.14L32 47.59L18.56 41.14V34.32ZM26.12 5.25H37.88V16.33H26.12V5.25ZM20.2 18.83H43.8C44.235 18.83 44.6521 19.0028 44.9597 19.3103C45.2672 19.6179 45.44 20.035 45.44 20.47V31.54L32 38L18.56 31.54V20.47C18.56 20.035 18.7328 19.6179 19.0403 19.3103C19.3479 19.0028 19.765 18.83 20.2 18.83V18.83ZM43.8 54.92H20.2C19.7659 54.9174 19.3502 54.7437 19.0432 54.4368C18.7362 54.1298 18.5626 53.7141 18.56 53.28V43.92L31.46 50.11C31.6291 50.1887 31.8134 50.2295 32 50.2295C32.1866 50.2295 32.3709 50.1887 32.54 50.11L45.44 43.92V53.28C45.4374 53.7141 45.2637 54.1298 44.9568 54.4368C44.6498 54.7437 44.2341 54.9174 43.8 54.92Z" fill="#006DF0"/>
</svg>
